<svg xmlns="http://www.w3.org/2000/svg" viewBox="0 0 841 189" width="841" height="189">
<style>text{font-family:"SFMono-Regular",Menlo,Consolas,monospace;font-size:11px;fill:#8b949e}.c{opacity:0;animation:s .45s ease-out forwards}@keyframes s{from{opacity:0;transform:translateY(-6px)}to{opacity:1;transform:none}}</style>
<rect width="841" height="189" rx="8" fill="#0d1117"/>
<rect class="c" x="34" y="34" width="12" height="12" rx="3" fill="#006d32" style="animation-delay:0.000s"/>
<rect class="c" x="34" y="49" width="12" height="12" rx="3" fill="#161b22" style="animation-delay:0.018s"/>
<rect class="c" x="34" y="64" width="12" height="12" rx="3" fill="#161b22" style="animation-delay:0.036s"/>
<rect class="c" x="34" y="79" width="12" height="12" rx="3" fill="#161b22" style="animation-delay:0.054s"/>
<rect class="c" x="34" y="94" width="12" height="12" rx="3" fill="#161b22" style="animation-delay:0.072s"/>
<rect class="c" x="34" y="109" width="12" height="12" rx="3" fill="#161b22" style="animation-delay:0.090s"/>
<rect class="c" x="34" y="124" width="12" height="12" rx="3" fill="#161b22" style="animation-delay:0.108s"/>
<rect class="c" x="49" y="34" width="12" height="12" rx="3" fill="#161b22" style="animation-delay:0.018s"/>
<rect class="c" x="49" y="49" width="12" height="12" rx="3" fill="#161b22" style="animation-delay:0.036s"/>
<rect class="c" x="49" y="64" width="12" height="12" rx="3" fill="#161b22" style="animation-delay:0.054s"/>
<rect class="c" x="49" y="79" width="12" height="12" rx="3" fill="#161b22" style="animation-delay:0.072s"/>
<rect class="c" x="49" y="94" width="12" height="12" rx="3" fill="#161b22" style="animation-delay:0.090s"/>
<rect class="c" x="49" y="109" width="12" height="12" rx="3" fill="#161b22" style="animation-delay:0.108s"/>
<rect class="c" x="49" y="124" width="12" height="12" rx="3" fill="#161b22" style="animation-delay:0.126s"/>
<rect class="c" x="64" y="34" width="12" height="12" rx="3" fill="#161b22" style="animation-delay:0.036s"/>
<rect class="c" x="64" y="49" width="12" height="12" rx="3" fill="#161b22" style="animation-delay:0.054s"/>
<rect class="c" x="64" y="64" width="12" height="12" rx="3" fill="#161b22" style="animation-delay:0.072s"/>
<rect class="c" x="64" y="79" width="12" height="12" rx="3" fill="#161b22" style="animation-delay:0.090s"/>
<rect class="c" x="64" y="94" width="12" height="12" rx="3" fill="#161b22" style="animation-delay:0.108s"/>
<rect class="c" x="64" y="109" width="12" height="12" rx="3" fill="#161b22" style="animation-delay:0.126s"/>
<rect class="c" x="64" y="124" width="12" height="12" rx="3" fill="#161b22" style="animation-delay:0.144s"/>
<rect class="c" x="79" y="34" width="12" height="12" rx="3" fill="#161b22" style="animation-delay:0.054s"/>
<rect class="c" x="79" y="49" width="12" height="12" rx="3" fill="#161b22" style="animation-delay:0.072s"/>
<rect class="c" x="79" y="64" width="12" height="12" rx="3" fill="#161b22" style="animation-delay:0.090s"/>
<rect class="c" x="79" y="79" width="12" height="12" rx="3" fill="#161b22" style="animation-delay:0.108s"/>
<rect class="c" x="79" y="94" width="12" height="12" rx="3" fill="#161b22" style="animation-delay:0.126s"/>
<rect class="c" x="79" y="109" width="12" height="12" rx="3" fill="#161b22" style="animation-delay:0.144s"/>
<rect class="c" x="79" y="124" width="12" height="12" rx="3" fill="#161b22" style="animation-delay:0.162s"/>
<rect class="c" x="94" y="34" width="12" height="12" rx="3" fill="#161b22" style="animation-delay:0.072s"/>
<rect class="c" x="94" y="49" width="12" height="12" rx="3" fill="#161b22" style="animation-delay:0.090s"/>
<rect class="c" x="94" y="64" width="12" height="12" rx="3" fill="#161b22" style="animation-delay:0.108s"/>
<rect class="c" x="94" y="79" width="12" height="12" rx="3" fill="#161b22" style="animation-delay:0.126s"/>
<rect class="c" x="94" y="94" width="12" height="12" rx="3" fill="#161b22" style="animation-delay:0.144s"/>
<rect class="c" x="94" y="109" width="12" height="12" rx="3" fill="#26a641" style="animation-delay:0.162s"/>
<rect class="c" x="94" y="124" width="12" height="12" rx="3" fill="#161b22" style="animation-delay:0.180s"/>
<rect class="c" x="109" y="34" width="12" height="12" rx="3" fill="#161b22" style="animation-delay:0.090s"/>
<rect class="c" x="109" y="49" width="12" height="12" rx="3" fill="#161b22" style="animation-delay:0.108s"/>
<rect class="c" x="109" y="64" width="12" height="12" rx="3" fill="#006d32" style="animation-delay:0.126s"/>
<rect class="c" x="109" y="79" width="12" height="12" rx="3" fill="#161b22" style="animation-delay:0.144s"/>
<rect class="c" x="109" y="94" width="12" height="12" rx="3" fill="#161b22" style="animation-delay:0.162s"/>
<rect class="c" x="109" y="109" width="12" height="12" rx="3" fill="#161b22" style="animation-delay:0.180s"/>
<rect class="c" x="109" y="124" width="12" height="12" rx="3" fill="#161b22" style="animation-delay:0.198s"/>
<rect class="c" x="124" y="34" width="12" height="12" rx="3" fill="#161b22" style="animation-delay:0.108s"/>
<rect class="c" x="124" y="49" width="12" height="12" rx="3" fill="#161b22" style="animation-delay:0.126s"/>
<rect class="c" x="124" y="64" width="12" height="12" rx="3" fill="#161b22" style="animation-delay:0.144s"/>
<rect class="c" x="124" y="79" width="12" height="12" rx="3" fill="#161b22" style="animation-delay:0.162s"/>
<rect class="c" x="124" y="94" width="12" height="12" rx="3" fill="#161b22" style="animation-delay:0.180s"/>
<rect class="c" x="124" y="109" width="12" height="12" rx="3" fill="#161b22" style="animation-delay:0.198s"/>
<rect class="c" x="124" y="124" width="12" height="12" rx="3" fill="#161b22" style="animation-delay:0.216s"/>
<rect class="c" x="139" y="34" width="12" height="12" rx="3" fill="#161b22" style="animation-delay:0.126s"/>
<rect class="c" x="139" y="49" width="12" height="12" rx="3" fill="#26a641" style="animation-delay:0.144s"/>
<rect class="c" x="139" y="64" width="12" height="12" rx="3" fill="#0e4429" style="animation-delay:0.162s"/>
<rect class="c" x="139" y="79" width="12" height="12" rx="3" fill="#161b22" style="animation-delay:0.180s"/>
<rect class="c" x="139" y="94" width="12" height="12" rx="3" fill="#161b22" style="animation-delay:0.198s"/>
<rect class="c" x="139" y="109" width="12" height="12" rx="3" fill="#161b22" style="animation-delay:0.216s"/>
<rect class="c" x="139" y="124" width="12" height="12" rx="3" fill="#26a641" style="animation-delay:0.234s"/>
<rect class="c" x="154" y="34" width="12" height="12" rx="3" fill="#161b22" style="animation-delay:0.144s"/>
<rect class="c" x="154" y="49" width="12" height="12" rx="3" fill="#161b22" style="animation-delay:0.162s"/>
<rect class="c" x="154" y="64" width="12" height="12" rx="3" fill="#161b22" style="animation-delay:0.180s"/>
<rect class="c" x="154" y="79" width="12" height="12" rx="3" fill="#161b22" style="animation-delay:0.198s"/>
<rect class="c" x="154" y="94" width="12" height="12" rx="3" fill="#69f0a0" style="animation-delay:0.216s"/>
<rect class="c" x="154" y="109" width="12" height="12" rx="3" fill="#161b22" style="animation-delay:0.234s"/>
<rect class="c" x="154" y="124" width="12" height="12" rx="3" fill="#161b22" style="animation-delay:0.252s"/>
<rect class="c" x="169" y="34" width="12" height="12" rx="3" fill="#161b22" style="animation-delay:0.162s"/>
<rect class="c" x="169" y="49" width="12" height="12" rx="3" fill="#161b22" style="animation-delay:0.180s"/>
<rect class="c" x="169" y="64" width="12" height="12" rx="3" fill="#161b22" style="animation-delay:0.198s"/>
<rect class="c" x="169" y="79" width="12" height="12" rx="3" fill="#161b22" style="animation-delay:0.216s"/>
<rect class="c" x="169" y="94" width="12" height="12" rx="3" fill="#161b22" style="animation-delay:0.234s"/>
<rect class="c" x="169" y="109" width="12" height="12" rx="3" fill="#161b22" style="animation-delay:0.252s"/>
<rect class="c" x="169" y="124" width="12" height="12" rx="3" fill="#161b22" style="animation-delay:0.270s"/>
<rect class="c" x="184" y="34" width="12" height="12" rx="3" fill="#161b22" style="animation-delay:0.180s"/>
<rect class="c" x="184" y="49" width="12" height="12" rx="3" fill="#161b22" style="animation-delay:0.198s"/>
<rect class="c" x="184" y="64" width="12" height="12" rx="3" fill="#161b22" style="animation-delay:0.216s"/>
<rect class="c" x="184" y="79" width="12" height="12" rx="3" fill="#161b22" style="animation-delay:0.234s"/>
<rect class="c" x="184" y="94" width="12" height="12" rx="3" fill="#161b22" style="animation-delay:0.252s"/>
<rect class="c" x="184" y="109" width="12" height="12" rx="3" fill="#161b22" style="animation-delay:0.270s"/>
<rect class="c" x="184" y="124" width="12" height="12" rx="3" fill="#161b22" style="animation-delay:0.288s"/>
<rect class="c" x="199" y="34" width="12" height="12" rx="3" fill="#161b22" style="animation-delay:0.198s"/>
<rect class="c" x="199" y="49" width="12" height="12" rx="3" fill="#161b22" style="animation-delay:0.216s"/>
<rect class="c" x="199" y="64" width="12" height="12" rx="3" fill="#161b22" style="animation-delay:0.234s"/>
<rect class="c" x="199" y="79" width="12" height="12" rx="3" fill="#161b22" style="animation-delay:0.252s"/>
<rect class="c" x="199" y="94" width="12" height="12" rx="3" fill="#161b22" style="animation-delay:0.270s"/>
<rect class="c" x="199" y="109" width="12" height="12" rx="3" fill="#161b22" style="animation-delay:0.288s"/>
<rect class="c" x="199" y="124" width="12" height="12" rx="3" fill="#161b22" style="animation-delay:0.306s"/>
<rect class="c" x="214" y="34" width="12" height="12" rx="3" fill="#161b22" style="animation-delay:0.216s"/>
<rect class="c" x="214" y="49" width="12" height="12" rx="3" fill="#161b22" style="animation-delay:0.234s"/>
<rect class="c" x="214" y="64" width="12" height="12" rx="3" fill="#161b22" style="animation-delay:0.252s"/>
<rect class="c" x="214" y="79" width="12" height="12" rx="3" fill="#161b22" style="animation-delay:0.270s"/>
<rect class="c" x="214" y="94" width="12" height="12" rx="3" fill="#0e4429" style="animation-delay:0.288s"/>
<rect class="c" x="214" y="109" width="12" height="12" rx="3" fill="#0e4429" style="animation-delay:0.306s"/>
<rect class="c" x="214" y="124" width="12" height="12" rx="3" fill="#0e4429" style="animation-delay:0.324s"/>
<rect class="c" x="229" y="34" width="12" height="12" rx="3" fill="#0e4429" style="animation-delay:0.234s"/>
<rect class="c" x="229" y="49" width="12" height="12" rx="3" fill="#0e4429" style="animation-delay:0.252s"/>
<rect class="c" x="229" y="64" width="12" height="12" rx="3" fill="#161b22" style="animation-delay:0.270s"/>
<rect class="c" x="229" y="79" width="12" height="12" rx="3" fill="#161b22" style="animation-delay:0.288s"/>
<rect class="c" x="229" y="94" width="12" height="12" rx="3" fill="#26a641" style="animation-delay:0.306s"/>
<rect class="c" x="229" y="109" width="12" height="12" rx="3" fill="#26a641" style="animation-delay:0.324s"/>
<rect class="c" x="229" y="124" width="12" height="12" rx="3" fill="#26a641" style="animation-delay:0.342s"/>
<rect class="c" x="244" y="34" width="12" height="12" rx="3" fill="#26a641" style="animation-delay:0.252s"/>
<rect class="c" x="244" y="49" width="12" height="12" rx="3" fill="#0e4429" style="animation-delay:0.270s"/>
<rect class="c" x="244" y="64" width="12" height="12" rx="3" fill="#161b22" style="animation-delay:0.288s"/>
<rect class="c" x="244" y="79" width="12" height="12" rx="3" fill="#0e4429" style="animation-delay:0.306s"/>
<rect class="c" x="244" y="94" width="12" height="12" rx="3" fill="#26a641" style="animation-delay:0.324s"/>
<rect class="c" x="244" y="109" width="12" height="12" rx="3" fill="#161b22" style="animation-delay:0.342s"/>
<rect class="c" x="244" y="124" width="12" height="12" rx="3" fill="#0e4429" style="animation-delay:0.360s"/>
<rect class="c" x="259" y="34" width="12" height="12" rx="3" fill="#0e4429" style="animation-delay:0.270s"/>
<rect class="c" x="259" y="49" width="12" height="12" rx="3" fill="#0e4429" style="animation-delay:0.288s"/>
<rect class="c" x="259" y="64" width="12" height="12" rx="3" fill="#0e4429" style="animation-delay:0.306s"/>
<rect class="c" x="259" y="79" width="12" height="12" rx="3" fill="#006d32" style="animation-delay:0.324s"/>
<rect class="c" x="259" y="94" width="12" height="12" rx="3" fill="#0e4429" style="animation-delay:0.342s"/>
<rect class="c" x="259" y="109" width="12" height="12" rx="3" fill="#006d32" style="animation-delay:0.360s"/>
<rect class="c" x="259" y="124" width="12" height="12" rx="3" fill="#0e4429" style="animation-delay:0.378s"/>
<rect class="c" x="274" y="34" width="12" height="12" rx="3" fill="#0e4429" style="animation-delay:0.288s"/>
<rect class="c" x="274" y="49" width="12" height="12" rx="3" fill="#0e4429" style="animation-delay:0.306s"/>
<rect class="c" x="274" y="64" width="12" height="12" rx="3" fill="#0e4429" style="animation-delay:0.324s"/>
<rect class="c" x="274" y="79" width="12" height="12" rx="3" fill="#0e4429" style="animation-delay:0.342s"/>
<rect class="c" x="274" y="94" width="12" height="12" rx="3" fill="#161b22" style="animation-delay:0.360s"/>
<rect class="c" x="274" y="109" width="12" height="12" rx="3" fill="#161b22" style="animation-delay:0.378s"/>
<rect class="c" x="274" y="124" width="12" height="12" rx="3" fill="#0e4429" style="animation-delay:0.396s"/>
<rect class="c" x="289" y="34" width="12" height="12" rx="3" fill="#0e4429" style="animation-delay:0.306s"/>
<rect class="c" x="289" y="49" width="12" height="12" rx="3" fill="#161b22" style="animation-delay:0.324s"/>
<rect class="c" x="289" y="64" width="12" height="12" rx="3" fill="#0e4429" style="animation-delay:0.342s"/>
<rect class="c" x="289" y="79" width="12" height="12" rx="3" fill="#26a641" style="animation-delay:0.360s"/>
<rect class="c" x="289" y="94" width="12" height="12" rx="3" fill="#0e4429" style="animation-delay:0.378s"/>
<rect class="c" x="289" y="109" width="12" height="12" rx="3" fill="#006d32" style="animation-delay:0.396s"/>
<rect class="c" x="289" y="124" width="12" height="12" rx="3" fill="#0e4429" style="animation-delay:0.414s"/>
<rect class="c" x="304" y="34" width="12" height="12" rx="3" fill="#006d32" style="animation-delay:0.324s"/>
<rect class="c" x="304" y="49" width="12" height="12" rx="3" fill="#006d32" style="animation-delay:0.342s"/>
<rect class="c" x="304" y="64" width="12" height="12" rx="3" fill="#0e4429" style="animation-delay:0.360s"/>
<rect class="c" x="304" y="79" width="12" height="12" rx="3" fill="#0e4429" style="animation-delay:0.378s"/>
<rect class="c" x="304" y="94" width="12" height="12" rx="3" fill="#0e4429" style="animation-delay:0.396s"/>
<rect class="c" x="304" y="109" width="12" height="12" rx="3" fill="#69f0a0" style="animation-delay:0.414s"/>
<rect class="c" x="304" y="124" width="12" height="12" rx="3" fill="#0e4429" style="animation-delay:0.432s"/>
<rect class="c" x="319" y="34" width="12" height="12" rx="3" fill="#0e4429" style="animation-delay:0.342s"/>
<rect class="c" x="319" y="49" width="12" height="12" rx="3" fill="#161b22" style="animation-delay:0.360s"/>
<rect class="c" x="319" y="64" width="12" height="12" rx="3" fill="#0e4429" style="animation-delay:0.378s"/>
<rect class="c" x="319" y="79" width="12" height="12" rx="3" fill="#006d32" style="animation-delay:0.396s"/>
<rect class="c" x="319" y="94" width="12" height="12" rx="3" fill="#0e4429" style="animation-delay:0.414s"/>
<rect class="c" x="319" y="109" width="12" height="12" rx="3" fill="#0e4429" style="animation-delay:0.432s"/>
<rect class="c" x="319" y="124" width="12" height="12" rx="3" fill="#0e4429" style="animation-delay:0.450s"/>
<rect class="c" x="334" y="34" width="12" height="12" rx="3" fill="#0e4429" style="animation-delay:0.360s"/>
<rect class="c" x="334" y="49" width="12" height="12" rx="3" fill="#0e4429" style="animation-delay:0.378s"/>
<rect class="c" x="334" y="64" width="12" height="12" rx="3" fill="#0e4429" style="animation-delay:0.396s"/>
<rect class="c" x="334" y="79" width="12" height="12" rx="3" fill="#0e4429" style="animation-delay:0.414s"/>
<rect class="c" x="334" y="94" width="12" height="12" rx="3" fill="#0e4429" style="animation-delay:0.432s"/>
<rect class="c" x="334" y="109" width="12" height="12" rx="3" fill="#161b22" style="animation-delay:0.450s"/>
<rect class="c" x="334" y="124" width="12" height="12" rx="3" fill="#0e4429" style="animation-delay:0.468s"/>
<rect class="c" x="349" y="34" width="12" height="12" rx="3" fill="#0e4429" style="animation-delay:0.378s"/>
<rect class="c" x="349" y="49" width="12" height="12" rx="3" fill="#0e4429" style="animation-delay:0.396s"/>
<rect class="c" x="349" y="64" width="12" height="12" rx="3" fill="#0e4429" style="animation-delay:0.414s"/>
<rect class="c" x="349" y="79" width="12" height="12" rx="3" fill="#0e4429" style="animation-delay:0.432s"/>
<rect class="c" x="349" y="94" width="12" height="12" rx="3" fill="#0e4429" style="animation-delay:0.450s"/>
<rect class="c" x="349" y="109" width="12" height="12" rx="3" fill="#0e4429" style="animation-delay:0.468s"/>
<rect class="c" x="349" y="124" width="12" height="12" rx="3" fill="#0e4429" style="animation-delay:0.486s"/>
<rect class="c" x="364" y="34" width="12" height="12" rx="3" fill="#0e4429" style="animation-delay:0.396s"/>
<rect class="c" x="364" y="49" width="12" height="12" rx="3" fill="#0e4429" style="animation-delay:0.414s"/>
<rect class="c" x="364" y="64" width="12" height="12" rx="3" fill="#0e4429" style="animation-delay:0.432s"/>
<rect class="c" x="364" y="79" width="12" height="12" rx="3" fill="#0e4429" style="animation-delay:0.450s"/>
<rect class="c" x="364" y="94" width="12" height="12" rx="3" fill="#0e4429" style="animation-delay:0.468s"/>
<rect class="c" x="364" y="109" width="12" height="12" rx="3" fill="#0e4429" style="animation-delay:0.486s"/>
<rect class="c" x="364" y="124" width="12" height="12" rx="3" fill="#0e4429" style="animation-delay:0.504s"/>
<rect class="c" x="379" y="34" width="12" height="12" rx="3" fill="#0e4429" style="animation-delay:0.414s"/>
<rect class="c" x="379" y="49" width="12" height="12" rx="3" fill="#0e4429" style="animation-delay:0.432s"/>
<rect class="c" x="379" y="64" width="12" height="12" rx="3" fill="#0e4429" style="animation-delay:0.450s"/>
<rect class="c" x="379" y="79" width="12" height="12" rx="3" fill="#0e4429" style="animation-delay:0.468s"/>
<rect class="c" x="379" y="94" width="12" height="12" rx="3" fill="#0e4429" style="animation-delay:0.486s"/>
<rect class="c" x="379" y="109" width="12" height="12" rx="3" fill="#0e4429" style="animation-delay:0.504s"/>
<rect class="c" x="379" y="124" width="12" height="12" rx="3" fill="#26a641" style="animation-delay:0.522s"/>
<rect class="c" x="394" y="34" width="12" height="12" rx="3" fill="#161b22" style="animation-delay:0.432s"/>
<rect class="c" x="394" y="49" width="12" height="12" rx="3" fill="#0e4429" style="animation-delay:0.450s"/>
<rect class="c" x="394" y="64" width="12" height="12" rx="3" fill="#0e4429" style="animation-delay:0.468s"/>
<rect class="c" x="394" y="79" width="12" height="12" rx="3" fill="#0e4429" style="animation-delay:0.486s"/>
<rect class="c" x="394" y="94" width="12" height="12" rx="3" fill="#0e4429" style="animation-delay:0.504s"/>
<rect class="c" x="394" y="109" width="12" height="12" rx="3" fill="#0e4429" style="animation-delay:0.522s"/>
<rect class="c" x="394" y="124" width="12" height="12" rx="3" fill="#0e4429" style="animation-delay:0.540s"/>
<rect class="c" x="409" y="34" width="12" height="12" rx="3" fill="#0e4429" style="animation-delay:0.450s"/>
<rect class="c" x="409" y="49" width="12" height="12" rx="3" fill="#161b22" style="animation-delay:0.468s"/>
<rect class="c" x="409" y="64" width="12" height="12" rx="3" fill="#0e4429" style="animation-delay:0.486s"/>
<rect class="c" x="409" y="79" width="12" height="12" rx="3" fill="#0e4429" style="animation-delay:0.504s"/>
<rect class="c" x="409" y="94" width="12" height="12" rx="3" fill="#0e4429" style="animation-delay:0.522s"/>
<rect class="c" x="409" y="109" width="12" height="12" rx="3" fill="#0e4429" style="animation-delay:0.540s"/>
<rect class="c" x="409" y="124" width="12" height="12" rx="3" fill="#0e4429" style="animation-delay:0.558s"/>
<rect class="c" x="424" y="34" width="12" height="12" rx="3" fill="#0e4429" style="animation-delay:0.468s"/>
<rect class="c" x="424" y="49" width="12" height="12" rx="3" fill="#0e4429" style="animation-delay:0.486s"/>
<rect class="c" x="424" y="64" width="12" height="12" rx="3" fill="#161b22" style="animation-delay:0.504s"/>
<rect class="c" x="424" y="79" width="12" height="12" rx="3" fill="#0e4429" style="animation-delay:0.522s"/>
<rect class="c" x="424" y="94" width="12" height="12" rx="3" fill="#0e4429" style="animation-delay:0.540s"/>
<rect class="c" x="424" y="109" width="12" height="12" rx="3" fill="#0e4429" style="animation-delay:0.558s"/>
<rect class="c" x="424" y="124" width="12" height="12" rx="3" fill="#0e4429" style="animation-delay:0.576s"/>
<rect class="c" x="439" y="34" width="12" height="12" rx="3" fill="#161b22" style="animation-delay:0.486s"/>
<rect class="c" x="439" y="49" width="12" height="12" rx="3" fill="#0e4429" style="animation-delay:0.504s"/>
<rect class="c" x="439" y="64" width="12" height="12" rx="3" fill="#0e4429" style="animation-delay:0.522s"/>
<rect class="c" x="439" y="79" width="12" height="12" rx="3" fill="#0e4429" style="animation-delay:0.540s"/>
<rect class="c" x="439" y="94" width="12" height="12" rx="3" fill="#161b22" style="animation-delay:0.558s"/>
<rect class="c" x="439" y="109" width="12" height="12" rx="3" fill="#0e4429" style="animation-delay:0.576s"/>
<rect class="c" x="439" y="124" width="12" height="12" rx="3" fill="#0e4429" style="animation-delay:0.594s"/>
<rect class="c" x="454" y="34" width="12" height="12" rx="3" fill="#0e4429" style="animation-delay:0.504s"/>
<rect class="c" x="454" y="49" width="12" height="12" rx="3" fill="#0e4429" style="animation-delay:0.522s"/>
<rect class="c" x="454" y="64" width="12" height="12" rx="3" fill="#39d353" style="animation-delay:0.540s"/>
<rect class="c" x="454" y="79" width="12" height="12" rx="3" fill="#0e4429" style="animation-delay:0.558s"/>
<rect class="c" x="454" y="94" width="12" height="12" rx="3" fill="#006d32" style="animation-delay:0.576s"/>
<rect class="c" x="454" y="109" width="12" height="12" rx="3" fill="#161b22" style="animation-delay:0.594s"/>
<rect class="c" x="454" y="124" width="12" height="12" rx="3" fill="#0e4429" style="animation-delay:0.612s"/>
<rect class="c" x="469" y="34" width="12" height="12" rx="3" fill="#0e4429" style="animation-delay:0.522s"/>
<rect class="c" x="469" y="49" width="12" height="12" rx="3" fill="#0e4429" style="animation-delay:0.540s"/>
<rect class="c" x="469" y="64" width="12" height="12" rx="3" fill="#0e4429" style="animation-delay:0.558s"/>
<rect class="c" x="469" y="79" width="12" height="12" rx="3" fill="#0e4429" style="animation-delay:0.576s"/>
<rect class="c" x="469" y="94" width="12" height="12" rx="3" fill="#0e4429" style="animation-delay:0.594s"/>
<rect class="c" x="469" y="109" width="12" height="12" rx="3" fill="#006d32" style="animation-delay:0.612s"/>
<rect class="c" x="469" y="124" width="12" height="12" rx="3" fill="#0e4429" style="animation-delay:0.630s"/>
<rect class="c" x="484" y="34" width="12" height="12" rx="3" fill="#0e4429" style="animation-delay:0.540s"/>
<rect class="c" x="484" y="49" width="12" height="12" rx="3" fill="#0e4429" style="animation-delay:0.558s"/>
<rect class="c" x="484" y="64" width="12" height="12" rx="3" fill="#0e4429" style="animation-delay:0.576s"/>
<rect class="c" x="484" y="79" width="12" height="12" rx="3" fill="#006d32" style="animation-delay:0.594s"/>
<rect class="c" x="484" y="94" width="12" height="12" rx="3" fill="#0e4429" style="animation-delay:0.612s"/>
<rect class="c" x="484" y="109" width="12" height="12" rx="3" fill="#0e4429" style="animation-delay:0.630s"/>
<rect class="c" x="484" y="124" width="12" height="12" rx="3" fill="#0e4429" style="animation-delay:0.648s"/>
<rect class="c" x="499" y="34" width="12" height="12" rx="3" fill="#0e4429" style="animation-delay:0.558s"/>
<rect class="c" x="499" y="49" width="12" height="12" rx="3" fill="#0e4429" style="animation-delay:0.576s"/>
<rect class="c" x="499" y="64" width="12" height="12" rx="3" fill="#0e4429" style="animation-delay:0.594s"/>
<rect class="c" x="499" y="79" width="12" height="12" rx="3" fill="#0e4429" style="animation-delay:0.612s"/>
<rect class="c" x="499" y="94" width="12" height="12" rx="3" fill="#0e4429" style="animation-delay:0.630s"/>
<rect class="c" x="499" y="109" width="12" height="12" rx="3" fill="#0e4429" style="animation-delay:0.648s"/>
<rect class="c" x="499" y="124" width="12" height="12" rx="3" fill="#0e4429" style="animation-delay:0.666s"/>
<rect class="c" x="514" y="34" width="12" height="12" rx="3" fill="#161b22" style="animation-delay:0.576s"/>
<rect class="c" x="514" y="49" width="12" height="12" rx="3" fill="#0e4429" style="animation-delay:0.594s"/>
<rect class="c" x="514" y="64" width="12" height="12" rx="3" fill="#006d32" style="animation-delay:0.612s"/>
<rect class="c" x="514" y="79" width="12" height="12" rx="3" fill="#69f0a0" style="animation-delay:0.630s"/>
<rect class="c" x="514" y="94" width="12" height="12" rx="3" fill="#0e4429" style="animation-delay:0.648s"/>
<rect class="c" x="514" y="109" width="12" height="12" rx="3" fill="#006d32" style="animation-delay:0.666s"/>
<rect class="c" x="514" y="124" width="12" height="12" rx="3" fill="#0e4429" style="animation-delay:0.684s"/>
<rect class="c" x="529" y="34" width="12" height="12" rx="3" fill="#0e4429" style="animation-delay:0.594s"/>
<rect class="c" x="529" y="49" width="12" height="12" rx="3" fill="#0e4429" style="animation-delay:0.612s"/>
<rect class="c" x="529" y="64" width="12" height="12" rx="3" fill="#0e4429" style="animation-delay:0.630s"/>
<rect class="c" x="529" y="79" width="12" height="12" rx="3" fill="#0e4429" style="animation-delay:0.648s"/>
<rect class="c" x="529" y="94" width="12" height="12" rx="3" fill="#0e4429" style="animation-delay:0.666s"/>
<rect class="c" x="529" y="109" width="12" height="12" rx="3" fill="#0e4429" style="animation-delay:0.684s"/>
<rect class="c" x="529" y="124" width="12" height="12" rx="3" fill="#0e4429" style="animation-delay:0.702s"/>
<rect class="c" x="544" y="34" width="12" height="12" rx="3" fill="#0e4429" style="animation-delay:0.612s"/>
<rect class="c" x="544" y="49" width="12" height="12" rx="3" fill="#0e4429" style="animation-delay:0.630s"/>
<rect class="c" x="544" y="64" width="12" height="12" rx="3" fill="#0e4429" style="animation-delay:0.648s"/>
<rect class="c" x="544" y="79" width="12" height="12" rx="3" fill="#0e4429" style="animation-delay:0.666s"/>
<rect class="c" x="544" y="94" width="12" height="12" rx="3" fill="#161b22" style="animation-delay:0.684s"/>
<rect class="c" x="544" y="109" width="12" height="12" rx="3" fill="#0e4429" style="animation-delay:0.702s"/>
<rect class="c" x="544" y="124" width="12" height="12" rx="3" fill="#0e4429" style="animation-delay:0.720s"/>
<rect class="c" x="559" y="34" width="12" height="12" rx="3" fill="#161b22" style="animation-delay:0.630s"/>
<rect class="c" x="559" y="49" width="12" height="12" rx="3" fill="#0e4429" style="animation-delay:0.648s"/>
<rect class="c" x="559" y="64" width="12" height="12" rx="3" fill="#161b22" style="animation-delay:0.666s"/>
<rect class="c" x="559" y="79" width="12" height="12" rx="3" fill="#0e4429" style="animation-delay:0.684s"/>
<rect class="c" x="559" y="94" width="12" height="12" rx="3" fill="#0e4429" style="animation-delay:0.702s"/>
<rect class="c" x="559" y="109" width="12" height="12" rx="3" fill="#0e4429" style="animation-delay:0.720s"/>
<rect class="c" x="559" y="124" width="12" height="12" rx="3" fill="#161b22" style="animation-delay:0.738s"/>
<rect class="c" x="574" y="34" width="12" height="12" rx="3" fill="#161b22" style="animation-delay:0.648s"/>
<rect class="c" x="574" y="49" width="12" height="12" rx="3" fill="#0e4429" style="animation-delay:0.666s"/>
<rect class="c" x="574" y="64" width="12" height="12" rx="3" fill="#0e4429" style="animation-delay:0.684s"/>
<rect class="c" x="574" y="79" width="12" height="12" rx="3" fill="#0e4429" style="animation-delay:0.702s"/>
<rect class="c" x="574" y="94" width="12" height="12" rx="3" fill="#0e4429" style="animation-delay:0.720s"/>
<rect class="c" x="574" y="109" width="12" height="12" rx="3" fill="#0e4429" style="animation-delay:0.738s"/>
<rect class="c" x="574" y="124" width="12" height="12" rx="3" fill="#0e4429" style="animation-delay:0.756s"/>
<rect class="c" x="589" y="34" width="12" height="12" rx="3" fill="#0e4429" style="animation-delay:0.666s"/>
<rect class="c" x="589" y="49" width="12" height="12" rx="3" fill="#161b22" style="animation-delay:0.684s"/>
<rect class="c" x="589" y="64" width="12" height="12" rx="3" fill="#0e4429" style="animation-delay:0.702s"/>
<rect class="c" x="589" y="79" width="12" height="12" rx="3" fill="#0e4429" style="animation-delay:0.720s"/>
<rect class="c" x="589" y="94" width="12" height="12" rx="3" fill="#161b22" style="animation-delay:0.738s"/>
<rect class="c" x="589" y="109" width="12" height="12" rx="3" fill="#0e4429" style="animation-delay:0.756s"/>
<rect class="c" x="589" y="124" width="12" height="12" rx="3" fill="#0e4429" style="animation-delay:0.774s"/>
<rect class="c" x="604" y="34" width="12" height="12" rx="3" fill="#0e4429" style="animation-delay:0.684s"/>
<rect class="c" x="604" y="49" width="12" height="12" rx="3" fill="#0e4429" style="animation-delay:0.702s"/>
<rect class="c" x="604" y="64" width="12" height="12" rx="3" fill="#0e4429" style="animation-delay:0.720s"/>
<rect class="c" x="604" y="79" width="12" height="12" rx="3" fill="#0e4429" style="animation-delay:0.738s"/>
<rect class="c" x="604" y="94" width="12" height="12" rx="3" fill="#0e4429" style="animation-delay:0.756s"/>
<rect class="c" x="604" y="109" width="12" height="12" rx="3" fill="#0e4429" style="animation-delay:0.774s"/>
<rect class="c" x="604" y="124" width="12" height="12" rx="3" fill="#161b22" style="animation-delay:0.792s"/>
<rect class="c" x="619" y="34" width="12" height="12" rx="3" fill="#0e4429" style="animation-delay:0.702s"/>
<rect class="c" x="619" y="49" width="12" height="12" rx="3" fill="#0e4429" style="animation-delay:0.720s"/>
<rect class="c" x="619" y="64" width="12" height="12" rx="3" fill="#0e4429" style="animation-delay:0.738s"/>
<rect class="c" x="619" y="79" width="12" height="12" rx="3" fill="#0e4429" style="animation-delay:0.756s"/>
<rect class="c" x="619" y="94" width="12" height="12" rx="3" fill="#161b22" style="animation-delay:0.774s"/>
<rect class="c" x="619" y="109" width="12" height="12" rx="3" fill="#161b22" style="animation-delay:0.792s"/>
<rect class="c" x="619" y="124" width="12" height="12" rx="3" fill="#0e4429" style="animation-delay:0.810s"/>
<rect class="c" x="634" y="34" width="12" height="12" rx="3" fill="#0e4429" style="animation-delay:0.720s"/>
<rect class="c" x="634" y="49" width="12" height="12" rx="3" fill="#0e4429" style="animation-delay:0.738s"/>
<rect class="c" x="634" y="64" width="12" height="12" rx="3" fill="#161b22" style="animation-delay:0.756s"/>
<rect class="c" x="634" y="79" width="12" height="12" rx="3" fill="#161b22" style="animation-delay:0.774s"/>
<rect class="c" x="634" y="94" width="12" height="12" rx="3" fill="#161b22" style="animation-delay:0.792s"/>
<rect class="c" x="634" y="109" width="12" height="12" rx="3" fill="#161b22" style="animation-delay:0.810s"/>
<rect class="c" x="634" y="124" width="12" height="12" rx="3" fill="#161b22" style="animation-delay:0.828s"/>
<rect class="c" x="649" y="34" width="12" height="12" rx="3" fill="#0e4429" style="animation-delay:0.738s"/>
<rect class="c" x="649" y="49" width="12" height="12" rx="3" fill="#0e4429" style="animation-delay:0.756s"/>
<rect class="c" x="649" y="64" width="12" height="12" rx="3" fill="#161b22" style="animation-delay:0.774s"/>
<rect class="c" x="649" y="79" width="12" height="12" rx="3" fill="#161b22" style="animation-delay:0.792s"/>
<rect class="c" x="649" y="94" width="12" height="12" rx="3" fill="#161b22" style="animation-delay:0.810s"/>
<rect class="c" x="649" y="109" width="12" height="12" rx="3" fill="#161b22" style="animation-delay:0.828s"/>
<rect class="c" x="649" y="124" width="12" height="12" rx="3" fill="#161b22" style="animation-delay:0.846s"/>
<rect class="c" x="664" y="34" width="12" height="12" rx="3" fill="#161b22" style="animation-delay:0.756s"/>
<rect class="c" x="664" y="49" width="12" height="12" rx="3" fill="#161b22" style="animation-delay:0.774s"/>
<rect class="c" x="664" y="64" width="12" height="12" rx="3" fill="#0e4429" style="animation-delay:0.792s"/>
<rect class="c" x="664" y="79" width="12" height="12" rx="3" fill="#0e4429" style="animation-delay:0.810s"/>
<rect class="c" x="664" y="94" width="12" height="12" rx="3" fill="#0e4429" style="animation-delay:0.828s"/>
<rect class="c" x="664" y="109" width="12" height="12" rx="3" fill="#161b22" style="animation-delay:0.846s"/>
<rect class="c" x="664" y="124" width="12" height="12" rx="3" fill="#0e4429" style="animation-delay:0.864s"/>
<rect class="c" x="679" y="34" width="12" height="12" rx="3" fill="#0e4429" style="animation-delay:0.774s"/>
<rect class="c" x="679" y="49" width="12" height="12" rx="3" fill="#0e4429" style="animation-delay:0.792s"/>
<rect class="c" x="679" y="64" width="12" height="12" rx="3" fill="#0e4429" style="animation-delay:0.810s"/>
<rect class="c" x="679" y="79" width="12" height="12" rx="3" fill="#0e4429" style="animation-delay:0.828s"/>
<rect class="c" x="679" y="94" width="12" height="12" rx="3" fill="#161b22" style="animation-delay:0.846s"/>
<rect class="c" x="679" y="109" width="12" height="12" rx="3" fill="#0e4429" style="animation-delay:0.864s"/>
<rect class="c" x="679" y="124" width="12" height="12" rx="3" fill="#161b22" style="animation-delay:0.882s"/>
<rect class="c" x="694" y="34" width="12" height="12" rx="3" fill="#161b22" style="animation-delay:0.792s"/>
<rect class="c" x="694" y="49" width="12" height="12" rx="3" fill="#0e4429" style="animation-delay:0.810s"/>
<rect class="c" x="694" y="64" width="12" height="12" rx="3" fill="#161b22" style="animation-delay:0.828s"/>
<rect class="c" x="694" y="79" width="12" height="12" rx="3" fill="#161b22" style="animation-delay:0.846s"/>
<rect class="c" x="694" y="94" width="12" height="12" rx="3" fill="#161b22" style="animation-delay:0.864s"/>
<rect class="c" x="694" y="109" width="12" height="12" rx="3" fill="#161b22" style="animation-delay:0.882s"/>
<rect class="c" x="694" y="124" width="12" height="12" rx="3" fill="#161b22" style="animation-delay:0.900s"/>
<rect class="c" x="709" y="34" width="12" height="12" rx="3" fill="#161b22" style="animation-delay:0.810s"/>
<rect class="c" x="709" y="49" width="12" height="12" rx="3" fill="#161b22" style="animation-delay:0.828s"/>
<rect class="c" x="709" y="64" width="12" height="12" rx="3" fill="#161b22" style="animation-delay:0.846s"/>
<rect class="c" x="709" y="79" width="12" height="12" rx="3" fill="#161b22" style="animation-delay:0.864s"/>
<rect class="c" x="709" y="94" width="12" height="12" rx="3" fill="#0e4429" style="animation-delay:0.882s"/>
<rect class="c" x="709" y="109" width="12" height="12" rx="3" fill="#0e4429" style="animation-delay:0.900s"/>
<rect class="c" x="709" y="124" width="12" height="12" rx="3" fill="#161b22" style="animation-delay:0.918s"/>
<rect class="c" x="724" y="34" width="12" height="12" rx="3" fill="#161b22" style="animation-delay:0.828s"/>
<rect class="c" x="724" y="49" width="12" height="12" rx="3" fill="#0e4429" style="animation-delay:0.846s"/>
<rect class="c" x="724" y="64" width="12" height="12" rx="3" fill="#161b22" style="animation-delay:0.864s"/>
<rect class="c" x="724" y="79" width="12" height="12" rx="3" fill="#161b22" style="animation-delay:0.882s"/>
<rect class="c" x="724" y="94" width="12" height="12" rx="3" fill="#161b22" style="animation-delay:0.900s"/>
<rect class="c" x="724" y="109" width="12" height="12" rx="3" fill="#0e4429" style="animation-delay:0.918s"/>
<rect class="c" x="724" y="124" width="12" height="12" rx="3" fill="#0e4429" style="animation-delay:0.936s"/>
<rect class="c" x="739" y="34" width="12" height="12" rx="3" fill="#161b22" style="animation-delay:0.846s"/>
<rect class="c" x="739" y="49" width="12" height="12" rx="3" fill="#161b22" style="animation-delay:0.864s"/>
<rect class="c" x="739" y="64" width="12" height="12" rx="3" fill="#0e4429" style="animation-delay:0.882s"/>
<rect class="c" x="739" y="79" width="12" height="12" rx="3" fill="#0e4429" style="animation-delay:0.900s"/>
<rect class="c" x="739" y="94" width="12" height="12" rx="3" fill="#0e4429" style="animation-delay:0.918s"/>
<rect class="c" x="739" y="109" width="12" height="12" rx="3" fill="#006d32" style="animation-delay:0.936s"/>
<rect class="c" x="739" y="124" width="12" height="12" rx="3" fill="#161b22" style="animation-delay:0.954s"/>
<rect class="c" x="754" y="34" width="12" height="12" rx="3" fill="#0e4429" style="animation-delay:0.864s"/>
<rect class="c" x="754" y="49" width="12" height="12" rx="3" fill="#0e4429" style="animation-delay:0.882s"/>
<rect class="c" x="754" y="64" width="12" height="12" rx="3" fill="#161b22" style="animation-delay:0.900s"/>
<rect class="c" x="754" y="79" width="12" height="12" rx="3" fill="#0e4429" style="animation-delay:0.918s"/>
<rect class="c" x="754" y="94" width="12" height="12" rx="3" fill="#161b22" style="animation-delay:0.936s"/>
<rect class="c" x="754" y="109" width="12" height="12" rx="3" fill="#161b22" style="animation-delay:0.954s"/>
<rect class="c" x="754" y="124" width="12" height="12" rx="3" fill="#161b22" style="animation-delay:0.972s"/>
<rect class="c" x="769" y="34" width="12" height="12" rx="3" fill="#161b22" style="animation-delay:0.882s"/>
<rect class="c" x="769" y="49" width="12" height="12" rx="3" fill="#161b22" style="animation-delay:0.900s"/>
<rect class="c" x="769" y="64" width="12" height="12" rx="3" fill="#161b22" style="animation-delay:0.918s"/>
<rect class="c" x="769" y="79" width="12" height="12" rx="3" fill="#161b22" style="animation-delay:0.936s"/>
<rect class="c" x="769" y="94" width="12" height="12" rx="3" fill="#161b22" style="animation-delay:0.954s"/>
<rect class="c" x="769" y="109" width="12" height="12" rx="3" fill="#161b22" style="animation-delay:0.972s"/>
<rect class="c" x="769" y="124" width="12" height="12" rx="3" fill="#161b22" style="animation-delay:0.990s"/>
<rect class="c" x="784" y="34" width="12" height="12" rx="3" fill="#161b22" style="animation-delay:0.900s"/>
<rect class="c" x="784" y="49" width="12" height="12" rx="3" fill="#161b22" style="animation-delay:0.918s"/>
<rect class="c" x="784" y="64" width="12" height="12" rx="3" fill="#161b22" style="animation-delay:0.936s"/>
<rect class="c" x="784" y="79" width="12" height="12" rx="3" fill="#0e4429" style="animation-delay:0.954s"/>
<rect class="c" x="784" y="94" width="12" height="12" rx="3" fill="#161b22" style="animation-delay:0.972s"/>
<rect class="c" x="784" y="109" width="12" height="12" rx="3" fill="#161b22" style="animation-delay:0.990s"/>
<rect class="c" x="784" y="124" width="12" height="12" rx="3" fill="#161b22" style="animation-delay:1.008s"/>
<rect class="c" x="799" y="34" width="12" height="12" rx="3" fill="#161b22" style="animation-delay:0.918s"/>
<rect class="c" x="799" y="49" width="12" height="12" rx="3" fill="#161b22" style="animation-delay:0.936s"/>
<rect class="c" x="799" y="64" width="12" height="12" rx="3" fill="#161b22" style="animation-delay:0.954s"/>
<rect class="c" x="799" y="79" width="12" height="12" rx="3" fill="#161b22" style="animation-delay:0.972s"/>
<rect class="c" x="799" y="94" width="12" height="12" rx="3" fill="#161b22" style="animation-delay:0.990s"/>
<rect class="c" x="799" y="109" width="12" height="12" rx="3" fill="#161b22" style="animation-delay:1.008s"/>
<rect class="c" x="799" y="124" width="12" height="12" rx="3" fill="#161b22" style="animation-delay:1.026s"/>
<rect class="c" x="814" y="34" width="12" height="12" rx="3" fill="#161b22" style="animation-delay:0.936s"/>
<rect class="c" x="814" y="49" width="12" height="12" rx="3" fill="#006d32" style="animation-delay:0.954s"/>
<rect class="c" x="814" y="64" width="12" height="12" rx="3" fill="#0e4429" style="animation-delay:0.972s"/>
<rect class="c" x="814" y="79" width="12" height="12" rx="3" fill="#161b22" style="animation-delay:0.990s"/>
<text x="34" y="24">Oct</text>
<text x="94" y="24">Nov</text>
<text x="169" y="24">Dec</text>
<text x="229" y="24">Jan</text>
<text x="289" y="24">Feb</text>
<text x="349" y="24">Mar</text>
<text x="424" y="24">Apr</text>
<text x="484" y="24">May</text>
<text x="559" y="24">Jun</text>
<text x="619" y="24">Jul</text>
<text x="679" y="24">Aug</text>
<text x="754" y="24">Sep</text>
<text x="814" y="24">Oct</text>
<text x="4" y="59">Mon</text>
<text x="4" y="89">Wed</text>
<text x="4" y="119">Fri</text>
<text x="34" y="161">516 contributions in the last year | streak 2d | longest 22d</text>
<text x="669" y="161">Less</text>
<rect x="701" y="151" width="12" height="12" rx="3" fill="#161b22"/>
<rect x="716" y="151" width="12" height="12" rx="3" fill="#0e4429"/>
<rect x="731" y="151" width="12" height="12" rx="3" fill="#006d32"/>
<rect x="746" y="151" width="12" height="12" rx="3" fill="#26a641"/>
<rect x="761" y="151" width="12" height="12" rx="3" fill="#39d353"/>
<rect x="776" y="151" width="12" height="12" rx="3" fill="#69f0a0"/>
<text x="795" y="161">More</text></svg>